<svg xmlns="http://www.w3.org/2000/svg" viewBox="0 0 220 360" role="img" aria-labelledby="title">
  <title id="title">日本列島のシルエット</title>
  <g fill="#151719">
    <!-- 北海道 -->
    <path d="M153 16l24 12 17-5 14 16-7 16-20-1-16 15-20-6-6-20z"/>
    <!-- 本州：東北から中国地方へ弧を描く輪郭 -->
    <path d="M151 72c12 10 14 24 5 38l6 15-10 16 1 16-14 13-9 17-16 10-10 15-18 8-14 13-18 2-10-10 13-12 18-6 15-13 15-9 9-15 14-11 8-17 12-13 6-16 10-12-2-18 7-15-2-16z"/>
    <!-- 房総・伊豆半島 -->
    <path d="M143 142l15 8-3 18-13 9-7-7 7-10z"/>
    <path d="M125 178l7 12-8 18-7-4 2-16z"/>
    <!-- 四国 -->
    <path d="M76 229l20-5 17 7-5 13-22 5-16-8z"/>
    <!-- 九州 -->
    <path d="M46 235l21 7 5 17-10 11 2 18-15 15-14-9 3-16-9-13 8-14z"/>
    <!-- 対馬・沖縄諸島 -->
    <path d="M29 238l6 4-5 12-6-4z"/>
    <circle cx="28" cy="317" r="4"/>
    <circle cx="18" cy="332" r="3"/>
    <circle cx="10" cy="345" r="2.5"/>
  </g>
</svg>
